<?xml version="1.0" encoding="utf-8"?>
<!-- Generator: Adobe Illustrator 16.0.2, SVG Export Plug-In . SVG Version: 6.00 Build 0)  -->
<!DOCTYPE svg PUBLIC "-//W3C//DTD SVG 1.1//EN" "http://www.w3.org/Graphics/SVG/1.1/DTD/svg11.dtd">
<svg version="1.1" id="Layer_1" xmlns="http://www.w3.org/2000/svg" xmlns:xlink="http://www.w3.org/1999/xlink" x="0px" y="0px"
	 width="419.527px" height="595.275px" viewBox="0 0 419.527 595.275" enable-background="new 0 0 419.527 595.275"
	 xml:space="preserve">
<rect fill="none" stroke="#FFFFFF" stroke-width="0.5" stroke-miterlimit="2.6131" width="419.527" height="595.275"/>
<path fill-rule="evenodd" clip-rule="evenodd" fill="#FFFFFF" d="M209.764,181.417c64.187,0,116.221,52.034,116.221,116.221
	c0,64.187-52.034,116.221-116.221,116.221s-116.22-52.034-116.22-116.221C93.543,233.451,145.577,181.417,209.764,181.417"/>
<circle fill-rule="evenodd" clip-rule="evenodd" fill="#FF0000" cx="209.764" cy="297.638" r="113.301"/>
<circle fill="none" stroke="#000000" stroke-width="0.5" stroke-miterlimit="2.6131" cx="209.764" cy="297.638" r="113.301"/>
<path d="M209.749,184.252c-62.433,0-113.371,50.937-113.371,113.386c0,62.447,50.938,113.386,113.371,113.386
	c62.464,0,113.4-50.938,113.4-113.386C323.149,235.189,272.213,184.252,209.749,184.252 M223.297,318.972
	c1.557-0.674,2.665-1.557,2.665-1.557s1.781,0,3.772,0c2.007,0,2.312-0.577,2.761-1.686s-0.545-2.536-0.545-2.536
	s2.007-1.558,3.997-3.099c2.007-1.557,3.563-3.756,3.563-3.756s0,1.749-0.675,3.53c-0.657,1.767-3.097,6.214-6.661,9.103
	c-3.549,2.891-8.027,1.525-8.027,1.525S221.74,319.63,223.297,318.972z M113.871,324.177c-2.349-8.456-3.607-17.355-3.607-26.539
	c0-54.807,44.694-99.5,99.485-99.5c54.806,0,99.515,44.693,99.515,99.5c0,45.885-31.357,84.698-73.741,96.104
	c-0.215-11.33,2.082-32.702,3.026-37.493c0.801-4.094,5.666-28.221,8.491-34.595c4.848,1.942,9.312,2.889,14.561,3.211
	c4.961,0.289,8.894-2.89,11.351-6.631c-4.111-5.635-4.479-6.244-5.395-11.253c15.203-3.115,24.834-10.033,29.875-24.642
	c4.769-13.791-1.316-31.159-12.906-38.609c-4.078-2.632-11.238-2.632-11.238-2.632c6.823,3.595,14.127,13.693,13.052,21.624
	c-2.103,15.604-9.937,20.034-28.351,22.876c-1.172,0.177-5.923-5.201-12.136-8.477c-7.048-3.691-15.941-5.314-23.567-4.688
	c-3.5,0.305-4.719,0.402-6.405-0.578c-11.285-6.517-23.485-9.744-42.348-5.104c-5.972,1.46-15.861-0.964-20.1-7.082
	c-5.923-8.571-4.784-19.022,2.312-25.17c8.059-6.951,23.005-8.653,29.844-10.499c-9.199-1.364-16.279-0.659-25.429,1.172
	c-21.897,4.367-31.721,21.736-28.158,41.948c3.355,19.071,14.111,20.725,25.685,24.417c-2.312,3.113-9.006,3.451-16.872,3.082
	c1.429,7.335,7.08,10.243,14.239,11.237c-4.383,4.561-13.517,8.428-22.346,11.977c-4.126,1.669-18.478,4.109-18.478,4.109
	S114.053,322.826,113.871,324.177z M179.792,300.784c0.225,0.224,5.555,7.078,5.555,7.078s-0.226,1.334-0.226,2.891
	c0,1.558,1.108,2.44,2.441,2.89s2.007-0.226,4.446,0.883c2.44,1.108,4.222,1.558,4.222,1.558s-2.44,1.107-4.447,1.332
	c-1.99,0.225-5.297-0.128-9.294-4.576C178.492,308.41,179.792,300.784,179.792,300.784z"/>
<path fill-rule="evenodd" clip-rule="evenodd" fill="#FFFFFF" d="M207.968,354.994c-0.503-0.396-1.803-0.656-2.944-0.685
	c-1.013-0.025-2.83,0.479-3.293,0.636c-2.616,1.009-3.134,1.113-6.328,1.513c-0.239,0.029-0.346,0.301-0.24,0.414l1.545,1.813
	c0.978,1.636,15.358,1.799,16.145,0.169c0.541-0.503,0.746-0.814,1.191-1.349c0.079-0.11-0.003-0.237-0.147-0.259
	C211.078,356.929,210.466,356.656,207.968,354.994"/>
<path fill-rule="evenodd" clip-rule="evenodd" fill="#FFFFFF" d="M202.178,343.15c0.959,0.888,4.061,0.565,4.897-0.003
	c4.347-2.954,10.568,3.163,12.081,7.161c1.353,3.642,2.023,4.521-1.155,5.846c-2.645,0.616-5.678,0.385-7.766-0.767
	c-1.623-1.153-1.663-1.814-5.104-1.814c-3.456,0-3.679,0.565-5.737,1.362c-0.97,0.25-6.958,1.483-8.554,0.785
	c-1.019-0.251-2.773-1.955-1.386-4.494C191.928,346.693,196.419,341.163,202.178,343.15"/>
<path d="M210.983,351.689c1.602,0.022,3.396-2.262,2.986-4.303c0,0-1.332,0.883-2.665,2.007
	C210.263,350.261,208.34,351.657,210.983,351.689"/>
<path d="M199.658,351.689c-1.602,0.022-3.395-2.262-2.986-4.303c0,0,1.333,0.883,2.665,2.007
	C200.378,350.261,202.301,351.657,199.658,351.689"/>
</svg>
